<svg xmlns="http://www.w3.org/2000/svg" xmlns:svg="http://www.w3.org/2000/svg" id="svg8" width="100" height="100" fill="none" version="1.1" viewBox="0 0 100 100"><metadata id="metadata14"/><rect style="stroke-width:.902078" id="rect2" width="90.208" height="90.208" x="4.896" y="4.896" fill="#000" fill-opacity="0"/><circle style="stroke-width:.902078" id="circle4" cx="50" cy="50" r="43.3" fill="#ea4c89"/><path style="stroke-width:.902078" id="path6" fill="#c32361" fill-rule="evenodd" d="M 50,4.8960982 C 25.09994,4.8960982 4.8960982,25.09994 4.8960982,50 4.8960982,74.90006 25.09994,95.103902 50,95.103902 74.851167,95.103902 95.103902,74.90006 95.103902,50 95.103902,25.09994 74.851167,4.8960982 50,4.8960982 Z M 79.792029,25.686922 c 5.381166,6.555221 8.609884,14.920551 8.70776,23.970649 -1.271931,-0.244643 -13.99105,-2.837306 -26.807956,-1.223037 -0.293536,-0.635875 -0.538179,-1.320823 -0.831625,-2.005681 -0.782733,-1.858912 -1.663342,-3.766807 -2.54386,-5.576826 14.18671,-5.772488 20.644055,-14.088836 21.475681,-15.165105 z M 50,11.549167 c 9.783938,0 18.736251,3.668959 25.536025,9.68609 -0.684858,0.978394 -6.506328,8.756652 -20.203752,13.893175 C 49.021606,23.534474 42.026081,14.044072 40.949902,12.576481 43.836101,11.891605 46.869158,11.549167 50,11.549167 Z m -16.388052,3.620066 c 1.027287,1.369716 7.876044,10.909101 14.284496,22.258415 -18.00241,4.794094 -33.901265,4.696309 -35.613481,4.696309 C 14.777822,30.18757 22.849616,20.256863 33.611948,15.169233 Z m -22.16062,34.87966 c 0,-0.391322 0,-0.782643 0,-1.174055 1.663269,0.04889 20.350601,0.293536 39.575958,-5.478951 1.125162,2.152448 2.152449,4.353789 3.130843,6.55522 -0.489197,0.146768 -1.027287,0.293537 -1.516484,0.440214 C 32.780323,56.799864 22.213651,74.313078 21.333133,75.780669 15.218126,68.980804 11.451328,59.930706 11.451328,50.048893 Z M 50,88.548681 c -8.90333,0 -17.121892,-3.033057 -23.62822,-8.120687 0.684948,-1.418608 8.512098,-16.485927 30.232333,-24.068434 0.09788,-0.04889 0.146768,-0.04889 0.244644,-0.09788 5.430059,14.039943 7.63149,25.829562 8.218472,29.205048 C 60.419903,87.472412 55.332273,88.548681 50,88.548681 Z M 71.475772,81.944568 C 71.08436,79.596369 69.029787,68.344839 63.99105,54.500648 c 12.083155,-1.907895 22.649736,1.222947 23.970559,1.663251 -1.663252,10.71335 -7.827151,19.959198 -16.485837,25.780669 z" clip-rule="evenodd"/></svg>